<mxfile host="app.diagrams.net" agent="Mozilla/5.0 (Windows NT 10.0; Win64; x64) AppleWebKit/537.36 (KHTML, like Gecko) Chrome/128.0.0.0 Safari/537.36 Edg/128.0.0.0" version="24.7.17">
  <diagram name="Page-1" id="2YBvvXClWsGukQMizWep">
    <mxGraphModel dx="983" dy="540" grid="1" gridSize="10" guides="1" tooltips="1" connect="1" arrows="1" fold="1" page="1" pageScale="1" pageWidth="850" pageHeight="1100" math="0" shadow="0">
      <root>
        <mxCell id="0" />
        <mxCell id="1" parent="0" />
        <mxCell id="aM9ryv3xv72pqoxQDRHE-1" value="Attentia&amp;nbsp;&lt;div&gt;SFTP&lt;/div&gt;" style="shape=umlLifeline;perimeter=lifelinePerimeter;whiteSpace=wrap;html=1;container=0;dropTarget=0;collapsible=0;recursiveResize=0;outlineConnect=0;portConstraint=eastwest;newEdgeStyle={&quot;edgeStyle&quot;:&quot;elbowEdgeStyle&quot;,&quot;elbow&quot;:&quot;vertical&quot;,&quot;curved&quot;:0,&quot;rounded&quot;:0};" parent="1" vertex="1">
          <mxGeometry x="40" y="40" width="100" height="300" as="geometry" />
        </mxCell>
        <mxCell id="aM9ryv3xv72pqoxQDRHE-2" value="" style="html=1;points=[];perimeter=orthogonalPerimeter;outlineConnect=0;targetShapes=umlLifeline;portConstraint=eastwest;newEdgeStyle={&quot;edgeStyle&quot;:&quot;elbowEdgeStyle&quot;,&quot;elbow&quot;:&quot;vertical&quot;,&quot;curved&quot;:0,&quot;rounded&quot;:0};" parent="aM9ryv3xv72pqoxQDRHE-1" vertex="1">
          <mxGeometry x="45" y="70" width="10" height="40" as="geometry" />
        </mxCell>
        <mxCell id="aM9ryv3xv72pqoxQDRHE-3" value="Send CSV" style="html=1;verticalAlign=bottom;startArrow=oval;endArrow=block;startSize=8;edgeStyle=elbowEdgeStyle;elbow=vertical;curved=0;rounded=0;" parent="aM9ryv3xv72pqoxQDRHE-1" target="aM9ryv3xv72pqoxQDRHE-2" edge="1">
          <mxGeometry relative="1" as="geometry">
            <mxPoint x="-15" y="70" as="sourcePoint" />
          </mxGeometry>
        </mxCell>
        <mxCell id="aM9ryv3xv72pqoxQDRHE-5" value="New Job&lt;div&gt;SmartConnect&lt;/div&gt;" style="shape=umlLifeline;perimeter=lifelinePerimeter;whiteSpace=wrap;html=1;container=0;dropTarget=0;collapsible=0;recursiveResize=0;outlineConnect=0;portConstraint=eastwest;newEdgeStyle={&quot;edgeStyle&quot;:&quot;elbowEdgeStyle&quot;,&quot;elbow&quot;:&quot;vertical&quot;,&quot;curved&quot;:0,&quot;rounded&quot;:0};" parent="1" vertex="1">
          <mxGeometry x="440" y="40" width="100" height="360" as="geometry" />
        </mxCell>
        <mxCell id="aM9ryv3xv72pqoxQDRHE-6" value="" style="html=1;points=[];perimeter=orthogonalPerimeter;outlineConnect=0;targetShapes=umlLifeline;portConstraint=eastwest;newEdgeStyle={&quot;edgeStyle&quot;:&quot;elbowEdgeStyle&quot;,&quot;elbow&quot;:&quot;vertical&quot;,&quot;curved&quot;:0,&quot;rounded&quot;:0};" parent="aM9ryv3xv72pqoxQDRHE-5" vertex="1">
          <mxGeometry x="45" y="100" width="10" height="40" as="geometry" />
        </mxCell>
        <mxCell id="6peSOsHKMvDo3f0feBT8-12" value="" style="html=1;points=[[0,0,0,0,5],[0,1,0,0,-5],[1,0,0,0,5],[1,1,0,0,-5]];perimeter=orthogonalPerimeter;outlineConnect=0;targetShapes=umlLifeline;portConstraint=eastwest;newEdgeStyle={&quot;curved&quot;:0,&quot;rounded&quot;:0};" vertex="1" parent="aM9ryv3xv72pqoxQDRHE-5">
          <mxGeometry x="45" y="170" width="10" height="40" as="geometry" />
        </mxCell>
        <mxCell id="6peSOsHKMvDo3f0feBT8-13" value="Process File&lt;div&gt;Calc diff&lt;/div&gt;" style="html=1;align=left;spacingLeft=2;endArrow=block;rounded=0;edgeStyle=orthogonalEdgeStyle;curved=0;rounded=0;" edge="1" target="6peSOsHKMvDo3f0feBT8-12" parent="aM9ryv3xv72pqoxQDRHE-5" source="6peSOsHKMvDo3f0feBT8-12">
          <mxGeometry relative="1" as="geometry">
            <mxPoint x="125" y="190" as="sourcePoint" />
            <Array as="points">
              <mxPoint x="50" y="150" />
              <mxPoint x="100" y="150" />
              <mxPoint x="100" y="230" />
              <mxPoint x="50" y="230" />
            </Array>
          </mxGeometry>
        </mxCell>
        <mxCell id="6peSOsHKMvDo3f0feBT8-3" value="Attentia FileDistri" style="shape=umlLifeline;whiteSpace=wrap;html=1;container=1;dropTarget=0;collapsible=0;recursiveResize=0;outlineConnect=0;portConstraint=eastwest;newEdgeStyle={&quot;curved&quot;:0,&quot;rounded&quot;:0};points=[[0,0,0,0,5],[0,1,0,0,-5],[1,0,0,0,5],[1,1,0,0,-5]];perimeter=rectanglePerimeter;targetShapes=umlLifeline;participant=label;" vertex="1" parent="1">
          <mxGeometry x="190" y="40" width="100" height="300" as="geometry" />
        </mxCell>
        <mxCell id="6peSOsHKMvDo3f0feBT8-4" value="" style="html=1;points=[[0,0,0,0,5],[0,1,0,0,-5],[1,0,0,0,5],[1,1,0,0,-5]];perimeter=orthogonalPerimeter;outlineConnect=0;targetShapes=umlLifeline;portConstraint=eastwest;newEdgeStyle={&quot;curved&quot;:0,&quot;rounded&quot;:0};" vertex="1" parent="6peSOsHKMvDo3f0feBT8-3">
          <mxGeometry x="45" y="80" width="10" height="60" as="geometry" />
        </mxCell>
        <mxCell id="6peSOsHKMvDo3f0feBT8-5" value="Folder" style="shape=umlLifeline;perimeter=lifelinePerimeter;whiteSpace=wrap;html=1;container=1;dropTarget=0;collapsible=0;recursiveResize=0;outlineConnect=0;portConstraint=eastwest;newEdgeStyle={&quot;curved&quot;:0,&quot;rounded&quot;:0};participant=umlBoundary;" vertex="1" parent="1">
          <mxGeometry x="330" y="40" width="90" height="300" as="geometry" />
        </mxCell>
        <mxCell id="6peSOsHKMvDo3f0feBT8-6" value="Move to dir" style="html=1;verticalAlign=bottom;endArrow=block;curved=0;rounded=0;" edge="1" parent="1" source="6peSOsHKMvDo3f0feBT8-4" target="6peSOsHKMvDo3f0feBT8-5">
          <mxGeometry width="80" relative="1" as="geometry">
            <mxPoint x="250" y="150" as="sourcePoint" />
            <mxPoint x="330" y="150" as="targetPoint" />
          </mxGeometry>
        </mxCell>
        <mxCell id="6peSOsHKMvDo3f0feBT8-8" value="Read CSV" style="edgeStyle=orthogonalEdgeStyle;rounded=0;orthogonalLoop=1;jettySize=auto;html=1;curved=0;" edge="1" parent="1" source="6peSOsHKMvDo3f0feBT8-4" target="aM9ryv3xv72pqoxQDRHE-1">
          <mxGeometry relative="1" as="geometry">
            <Array as="points">
              <mxPoint x="187" y="150" />
              <mxPoint x="187" y="130" />
            </Array>
          </mxGeometry>
        </mxCell>
        <mxCell id="6peSOsHKMvDo3f0feBT8-10" value="" style="edgeStyle=elbowEdgeStyle;rounded=0;orthogonalLoop=1;jettySize=auto;html=1;elbow=vertical;curved=0;" edge="1" parent="1" source="aM9ryv3xv72pqoxQDRHE-6" target="6peSOsHKMvDo3f0feBT8-5">
          <mxGeometry relative="1" as="geometry">
            <mxPoint x="420" y="204.82758620689663" as="targetPoint" />
          </mxGeometry>
        </mxCell>
        <mxCell id="6peSOsHKMvDo3f0feBT8-11" value="Read CSV" style="edgeLabel;html=1;align=center;verticalAlign=middle;resizable=0;points=[];" vertex="1" connectable="0" parent="6peSOsHKMvDo3f0feBT8-10">
          <mxGeometry x="-0.1191" y="-1" relative="1" as="geometry">
            <mxPoint as="offset" />
          </mxGeometry>
        </mxCell>
        <mxCell id="6peSOsHKMvDo3f0feBT8-14" value="DOTS API" style="shape=umlLifeline;perimeter=lifelinePerimeter;whiteSpace=wrap;html=1;container=1;dropTarget=0;collapsible=0;recursiveResize=0;outlineConnect=0;portConstraint=eastwest;newEdgeStyle={&quot;curved&quot;:0,&quot;rounded&quot;:0};" vertex="1" parent="1">
          <mxGeometry x="640" y="40" width="100" height="360" as="geometry" />
        </mxCell>
        <mxCell id="6peSOsHKMvDo3f0feBT8-15" value="Create/Update Wagens" style="html=1;verticalAlign=bottom;startArrow=oval;startFill=1;endArrow=block;startSize=8;curved=0;rounded=0;" edge="1" parent="1" target="6peSOsHKMvDo3f0feBT8-14">
          <mxGeometry width="60" relative="1" as="geometry">
            <mxPoint x="490" y="300" as="sourcePoint" />
            <mxPoint x="550" y="300" as="targetPoint" />
          </mxGeometry>
        </mxCell>
        <mxCell id="6peSOsHKMvDo3f0feBT8-16" value="Create/Update Woonwerk" style="html=1;verticalAlign=bottom;startArrow=oval;startFill=1;endArrow=block;startSize=8;curved=0;rounded=0;" edge="1" parent="1" target="6peSOsHKMvDo3f0feBT8-14">
          <mxGeometry width="60" relative="1" as="geometry">
            <mxPoint x="490" y="339.31" as="sourcePoint" />
            <mxPoint x="550" y="339.31" as="targetPoint" />
          </mxGeometry>
        </mxCell>
        <mxCell id="6peSOsHKMvDo3f0feBT8-17" value="Delete Woonwerk/wagens" style="html=1;verticalAlign=bottom;startArrow=oval;startFill=1;endArrow=block;startSize=8;curved=0;rounded=0;" edge="1" parent="1" target="6peSOsHKMvDo3f0feBT8-14">
          <mxGeometry width="60" relative="1" as="geometry">
            <mxPoint x="490" y="370" as="sourcePoint" />
            <mxPoint x="550" y="370" as="targetPoint" />
            <Array as="points">
              <mxPoint x="590" y="370" />
            </Array>
          </mxGeometry>
        </mxCell>
      </root>
    </mxGraphModel>
  </diagram>
</mxfile>
